<svg xmlns="http://www.w3.org/2000/svg" version="1.1" xmlns:xlink="http://www.w3.org/1999/xlink" xmlns:svgjs="http://svgjs.dev/svgjs" width="1000" height="750" viewBox="0 0 1000 750"><rect width="1000" height="750" fill="#e65728"></rect><g transform="matrix(0.834,0,0,0.834,82.49454545454546,224.0738976470847)"><svg viewBox="0 0 396 143" data-background-color="#e65728" preserveAspectRatio="xMidYMid meet" height="361" width="1000" xmlns="http://www.w3.org/2000/svg" xmlns:xlink="http://www.w3.org/1999/xlink"><g id="tight-bounds" transform="matrix(1,0,0,1,0.2400000000000091,0.18481049996640309)"><svg viewBox="0 0 395.52 142.6303790000672" height="142.6303790000672" width="395.52"><g><svg viewBox="0 0 698.7702797429412 251.9869281799117" height="142.6303790000672" width="395.52"><g><rect width="8.221577870395919" height="91.62332229407063" x="273.50624671444075" y="80.18180294292054" fill="#311904" opacity="1" stroke-width="0" stroke="transparent" fill-opacity="1" class="rect-r$-0" data-fill-palette-color="primary" rx="1%" id="r$-0" data-palette-color="#311904"></rect></g><g transform="matrix(1,0,0,1,303.25027974294113,80.40972165509484)"><svg viewBox="0 0 395.52 91.16748486972203" height="91.16748486972203" width="395.52"><g id="textblocktransform"><svg viewBox="0 0 395.52 91.16748486972203" height="91.16748486972203" width="395.52" id="textblock"><g><svg viewBox="0 0 395.52 91.16748486972203" height="91.16748486972203" width="395.52"><g transform="matrix(1,0,0,1,0,0)"><svg width="395.52" viewBox="4.733333333339999 -35 154.0028205128138 35.5" height="91.16748486972203" data-palette-color="#311904"><g class="wordmark-text-0" data-fill-palette-color="primary" id="text-0"><path d="M17.05 0L10.6 0Q10.05 0 9.78-0.38 9.5-0.75 9.6-1.25L9.6-1.25 11.85-12 4.8-33.4Q4.6-34 5-34.5 5.4-35 6.05-35L6.05-35 11.95-35Q12.7-35 13.03-34.63 13.35-34.25 13.45-33.95L13.45-33.95 17.85-21.1 27.7-33.95Q27.9-34.25 28.4-34.63 28.9-35 29.65-35L29.65-35 36.4-35Q37.2-35 37.3-34.45 37.4-33.9 37.05-33.4L37.05-33.4 20.85-12 18.55-1.25Q18.45-0.75 18.03-0.38 17.6 0 17.05 0L17.05 0ZM46.3 0.5L46.3 0.5Q42.3 0.5 39.6-0.85 36.9-2.2 35.72-4.73 34.55-7.25 35.1-10.75L35.1-10.75Q35.2-11.75 35.47-13.03 35.75-14.3 36.05-15.25L36.05-15.25Q37-18.8 38.95-21.3 40.9-23.8 43.97-25.15 47.05-26.5 51.2-26.5L51.2-26.5Q55.15-26.5 57.85-25.15 60.55-23.8 61.8-21.3 63.05-18.8 62.5-15.25L62.5-15.25Q62.3-14.3 62.05-13.03 61.8-11.75 61.55-10.75L61.55-10.75Q60.6-7.25 58.7-4.73 56.8-2.2 53.75-0.85 50.7 0.5 46.3 0.5ZM47.05-5.6L47.05-5.6Q49.3-5.6 50.7-6.95 52.1-8.3 52.8-11L52.8-11Q53-11.75 53.27-13 53.55-14.25 53.65-15L53.65-15Q54.1-17.65 53.4-19.03 52.7-20.4 50.45-20.4L50.45-20.4Q48.3-20.4 46.9-19.03 45.5-17.65 44.8-15L44.8-15Q44.6-14.25 44.32-13 44.05-11.75 43.95-11L43.95-11Q43.5-8.3 44.17-6.95 44.85-5.6 47.05-5.6ZM74.15 0.5L74.15 0.5Q71.15 0.5 69.07-0.8 67-2.1 66.22-4.63 65.45-7.15 66.25-10.8L66.25-10.8 69.15-24.75Q69.25-25.3 69.7-25.65 70.15-26 70.7-26L70.7-26 77-26Q77.5-26 77.77-25.65 78.05-25.3 77.95-24.75L77.95-24.75 75.1-11.1Q74.75-9.5 74.9-8.4 75.05-7.3 75.85-6.75 76.65-6.2 78.15-6.2L78.15-6.2Q80.3-6.2 81.87-7.48 83.45-8.75 83.95-11.1L83.95-11.1 86.85-24.75Q86.95-25.3 87.4-25.65 87.85-26 88.35-26L88.35-26 94.6-26Q95.15-26 95.42-25.65 95.7-25.3 95.6-24.75L95.6-24.75 90.6-1.25Q90.5-0.75 90.07-0.38 89.65 0 89.1 0L89.1 0 83.35 0Q82.8 0 82.5-0.38 82.2-0.75 82.3-1.25L82.3-1.25 82.7-3.15Q81.65-2 80.45-1.18 79.25-0.35 77.75 0.08 76.25 0.5 74.15 0.5ZM112.24 0L105.64 0Q105.09 0 104.79-0.38 104.49-0.75 104.59-1.25L104.59-1.25 110.14-27.15 101.24-27.15Q100.74-27.15 100.44-27.53 100.14-27.9 100.24-28.4L100.24-28.4 101.39-33.75Q101.49-34.3 101.92-34.65 102.34-35 102.89-35L102.89-35 129.79-35Q130.34-35 130.62-34.65 130.89-34.3 130.79-33.75L130.79-33.75 129.64-28.4Q129.54-27.9 129.12-27.53 128.69-27.15 128.14-27.15L128.14-27.15 119.29-27.15 113.74-1.25Q113.64-0.75 113.22-0.38 112.79 0 112.24 0L112.24 0ZM142.19 0L136.79 0Q136.04 0 135.74-0.38 135.44-0.75 135.34-1.25L135.34-1.25 130.84-24.6Q130.74-25.2 131.06-25.6 131.39-26 132.14-26L132.14-26 137.44-26Q138.09-26 138.39-25.68 138.69-25.35 138.74-24.85L138.74-24.85 141.14-9.6 150.09-24.95Q150.29-25.3 150.69-25.65 151.09-26 151.74-26L151.74-26 157.79-26Q158.39-26 158.64-25.53 158.89-25.05 158.49-24.45L158.49-24.45 144.14-1.25Q143.79-0.75 143.37-0.38 142.94 0 142.19 0L142.19 0Z" fill="#311904" data-fill-palette-color="primary"></path></g></svg></g></svg></g></svg></g></svg></g><g><svg viewBox="0 0 251.98379155633626 251.9869281799117" height="251.9869281799117" width="251.98379155633626"><g><svg xmlns="http://www.w3.org/2000/svg" xmlns:xlink="http://www.w3.org/1999/xlink" version="1.1" x="0" y="0" viewBox="0 0 80.336 80.337" enable-background="new 0 0 80.336 80.336" xml:space="preserve" width="251.98379155633626" height="251.9869281799117" class="icon-icon-0" data-fill-palette-color="accent" id="icon-0"><g fill="#3d1506" data-fill-palette-color="accent"><g fill="#3d1506" data-fill-palette-color="accent"><path d="M75.068 0h-69.8C2.359 0 0 2.359 0 5.268v69.801c0 2.908 2.359 5.268 5.268 5.268h69.8c2.909 0 5.268-2.359 5.268-5.268V5.268C80.336 2.359 77.978 0 75.068 0zM13.649 75.055H5.447V66.85h8.203V75.055zM13.649 59.663H5.447v-8.205h8.203V59.663zM13.649 44.27H5.447v-8.204h8.203V44.27zM13.649 28.877H5.447v-8.202h8.203V28.877zM13.649 13.485H5.447V5.282h8.203V13.485zM29.603 52.389V27.946l21.132 12.222L29.603 52.389zM75.053 75.055h-8.2V66.85h8.2V75.055zM75.053 59.663h-8.2v-8.205h8.2V59.663zM75.053 44.27h-8.2v-8.204h8.2V44.27zM75.053 28.877h-8.2v-8.202h8.2V28.877zM75.053 13.485h-8.2V5.282h8.2V13.485z" fill="#3d1506" data-fill-palette-color="accent"></path></g></g></svg></g></svg></g></svg></g><defs></defs></svg><rect width="395.52" height="142.6303790000672" fill="none" stroke="none" visibility="hidden"></rect></g></svg></g></svg>